<svg width="1156" height="1156" xmlns="http://www.w3.org/2000/svg">
 <defs>
  <style>.cls-1{isolation:isolate;}.cls-2{fill:#56676e;}.cls-3{fill:#4e4f50;}</style>
 </defs>
 <title>replit logo</title>
 <g>
  <title>Layer 1</title>
  <g class="cls-1" id="Exponent">
   <path id="svg_1" d="m1024.5,534.05c1.23,13.58 2.08,27.28 2.08,41.19l0,0c0,-13.91 -0.85,-27.6 -2.08,-41.19z" class="cls-2"/>
   <path id="svg_2" d="m359,531.68s-124.75,459.64 375.26,463.64c156.88,-58.4 272.48,-201.58 290,-374.2c1.21,-11.94 1.57,-24.12 1.84,-36.32c0.05,-3.21 0.48,-6.33 0.48,-9.56c0,-13.9 -0.85,-27.61 -2.08,-41.19c-132.1,520.03 -716.5,316.34 -665.5,-2.37z" class="cls-2"/>
   <path id="svg_3" d="m617.54,361.07s-465.54,-130.01 -458.38,377.61a449.86,449.86 0 0 0 108.49,162.17c2,1.89 4.07,3.68 6.09,5.54a450.17,450.17 0 0 0 42.54,34.67c2.31,1.65 4.48,3.47 6.8,5.08a446.74,446.74 0 0 0 49.11,29.16c4.93,2.54 10,4.86 15,7.23a443.91,443.91 0 0 0 44.85,18.2c3.75,1.28 7.33,2.88 11.13,4.07a444.68,444.68 0 0 0 55.83,13.2c5.71,1 11.48,1.84 17.26,2.64a450,450 0 0 0 59.11,4.59c0.76,0 1.49,0.12 2.25,0.12c14.92,0 29.65,-0.8 44.18,-2.23c-522.34,-124.57 -323.8,-708.65 -4.26,-662.05z" class="cls-2"/>
   <path id="svg_4" d="m799,601.8s110.14,-464.34 -385.64,-443.6c-166.25,65.67 -283.94,227.43 -283.94,417a451.1,451.1 0 0 0 4.61,61c104.34,-525.34 698.77,-355.2 664.97,-34.4z" class="cls-2"/>
   <path id="svg_5" d="m560.95,801.62s466.35,60.88 437.16,-382.51c-63.47,-170.67 -227.35,-292.49 -420.11,-292.49a450.24,450.24 0 0 0 -81.35,7.73c519.64,63.79 384.58,671.81 64.3,667.27z" class="cls-2"/>
   <path id="svg_6" d="m707.46,575.25a125.65,125.65 0 1 1 -125.61,-125.65a125.64,125.64 0 0 1 125.61,125.65z" class="cls-3"/>
  </g>
  <g stroke="null" id="svg_31">
   <path stroke="null" id="svg_10" d="m1056.2935,872.09964c8.44362,-16.03173 13.27918,-34.25805 13.27918,-53.63747c0,-49.25572 -30.94012,-91.18371 -74.40061,-107.70643c0,-0.05208 0.00744,-0.10415 0.00744,-0.16366c0,-86.2812 -69.94446,-156.22565 -156.22565,-156.22565c-72.78628,0 -133.76636,49.85086 -151.11484,117.22131c-10.98043,-3.60807 -22.68248,-5.63156 -34.86808,-5.63156c-57.22322,0 -104.32154,43.09596 -110.77143,98.58583c-38.7142,8.19069 -67.77218,42.53057 -67.77218,83.67744c0,47.2471 38.30504,85.55214 85.55214,85.55214c1.31676,0 2.61864,-0.08927 3.91308,-0.16366c-0.02976,1.30188 -0.19342,2.574 -0.19342,3.88332c0,84.22794 68.27805,152.50599 152.50599,152.50599c47.88688,0 90.57368,-22.10965 118.53807,-56.64296c16.20283,16.55248 38.72908,26.88569 63.72519,26.88569c34.59282,0 64.52863,-19.71419 79.34775,-48.48947c7.82616,2.49217 16.15076,3.85357 24.80268,3.85357c45.19385,0 81.83248,-36.63864 81.83248,-81.83248c0,-24.63158 -10.9358,-46.66683 -28.15781,-61.67194z" fill="#c7ede6"/>
   <path stroke="null" id="svg_11" d="m998.89917,915.17328l0,3.71966l22.31795,0l0,-3.71966c0,0 31.55758,0 40.91624,0c18.4867,0 33.47693,-14.99022 33.47693,-33.47693c0,-17.35593 -13.25686,-31.46087 -30.16643,-33.14216c0.16366,-1.34652 0.40916,-2.66328 0.40916,-4.05443c0,-18.4867 -14.99022,-33.47693 -33.47693,-33.47693c-10.69774,0 -20.10847,5.10337 -26.23847,12.91465c-1.0415,-19.61004 -17.12531,-35.2326 -36.99572,-35.2326c-20.53995,0 -37.19658,16.65663 -37.19658,37.19658c0,3.31794 0.57283,6.47221 1.39115,9.5372c-4.77604,-5.78035 -11.91035,-9.5372 -19.98944,-9.5372c-13.24942,0 -24.05875,9.93149 -25.70284,22.72711c-1.34652,-0.16366 -2.66328,-0.40916 -4.05443,-0.40916c-18.4867,0 -33.47693,14.99022 -33.47693,33.47693s14.99022,33.47693 33.47693,33.47693s70.67351,0 70.67351,0l44.6359,0z" fill="#fdfcef"/>
   <path stroke="null" id="svg_12" d="m969.1419,784.98524c-22.56345,0 -40.91624,18.35279 -40.91624,40.91624c0,0.11903 0,0.23062 0,0.34965c-4.47847,-2.64096 -9.59672,-4.06931 -14.87863,-4.06931c-13.62139,0 -25.37551,9.38098 -28.70088,22.35515c-0.34965,-0.02232 -0.6993,-0.0372 -1.05638,-0.0372c-20.5102,0 -37.19658,16.68639 -37.19658,37.19658s16.68639,37.19658 37.19658,37.19658l115.30941,0c2.05325,0 3.71966,-1.66641 3.71966,-3.71966s-1.66641,-3.71966 -3.71966,-3.71966l-115.30941,0c-16.41113,0 -29.75727,-13.34613 -29.75727,-29.75727s13.34613,-29.75727 29.75727,-29.75727c0.8704,0 1.71104,0.12647 2.55169,0.23806l1.04894,0.14135c0.15623,0.02232 0.30501,0.02976 0.46124,0.02976c1.83007,0 3.43696,-1.37627 3.68246,-3.25098c1.42091,-11.1069 10.88372,-19.47613 22.01294,-19.47613c6.5838,0 12.81794,2.98317 17.11787,8.18325c0.72905,0.87784 1.79288,1.35396 2.87158,1.35396c0.58027,0 1.16053,-0.13391 1.69616,-0.4166c1.55482,-0.79601 2.33595,-2.574 1.88959,-4.26273c-0.85552,-3.2361 -1.25724,-5.95889 -1.25724,-8.57753c0,-18.45694 15.01998,-33.47693 33.47693,-33.47693c17.71301,0 32.33871,13.9264 33.2835,31.71381c0.08183,1.54738 1.1159,2.87902 2.59632,3.34769c0.37197,0.11903 0.75137,0.17854 1.13078,0.17854c1.1159,0 2.20204,-0.51331 2.91621,-1.42835c5.73571,-7.30541 14.22397,-11.49374 23.30738,-11.49374c16.41113,0 29.75727,13.34613 29.75727,29.75727c0,0.8704 -0.12647,1.71104 -0.23806,2.55169l-0.14135,1.04894c-0.11903,0.99687 0.16366,1.99374 0.78857,2.77487c0.6249,0.78113 1.53994,1.27956 2.52937,1.37627c15.29524,1.52506 26.81874,14.18678 26.81874,29.44482c0,16.41113 -13.34613,29.75727 -29.75727,29.75727l-40.91624,0c-2.05325,0 -3.71966,1.66641 -3.71966,3.71966s1.66641,3.71966 3.71966,3.71966l40.91624,0c20.5102,0 37.19658,-16.68639 37.19658,-37.19658c0,-17.83204 -12.56501,-32.82971 -29.77959,-36.28155c0.01488,-0.30501 0.02232,-0.61002 0.02232,-0.91504c0,-20.5102 -16.68639,-37.19658 -37.19658,-37.19658c-8.74864,0 -17.05835,3.09476 -23.67935,8.65936c-4.44871,-17.88412 -20.54739,-30.97732 -39.55485,-30.97732l0,0z" fill="#472b29"/>
   <path stroke="null" id="svg_13" d="m957.98293,837.06045c-10.43736,0 -19.40918,7.43188 -21.67073,17.41544c-2.73023,-1.65153 -5.8473,-2.53681 -9.01645,-2.53681c-8.94206,0 -16.35162,6.67307 -17.50471,15.38451c-1.51018,-0.34221 -2.94597,-0.50587 -4.34456,-0.50587c-11.37472,0 -20.91192,8.92718 -21.70793,20.32421c-0.07439,1.02663 0.6993,1.91934 1.71848,1.99374c0.04464,0 0.08927,0 0.13391,0c0.96711,0 1.78544,-0.75137 1.85239,-1.72592c0.6621,-9.45537 8.56265,-16.87237 17.99571,-16.87237c1.7036,0 3.49648,0.31245 5.49022,0.94479c0.16366,0.05208 0.33477,0.07439 0.49843,0.07439c0.40916,0 0.81832,-0.14879 1.16053,-0.40172c0.47612,-0.34221 0.75881,-0.95223 0.75881,-1.54738c0,-7.69225 6.25647,-13.94872 13.94872,-13.94872c3.32537,0 6.5838,1.24981 9.1578,3.5188c0.34965,0.30501 0.78857,0.46868 1.22749,0.46868c0.23806,0 0.46868,-0.04464 0.69186,-0.14135c0.65466,-0.26038 1.10102,-0.8704 1.15309,-1.57714c0.77369,-9.61904 8.8751,-17.14763 18.45694,-17.14763c1.54738,0 3.16171,0.25294 5.07361,0.79601c0.1711,0.05208 0.34965,0.07439 0.52075,0.07439c0.81089,0 1.53994,-0.54307 1.778,-1.35396c0.28269,-0.98943 -0.29013,-2.01605 -1.27956,-2.29875c-2.24667,-0.63978 -4.18834,-0.93735 -6.0928,-0.93735l0,0zm103.28004,11.15898c-9.86453,0 -18.65781,6.67307 -21.3806,16.23259c-0.28269,0.98943 0.29013,2.01605 1.27956,2.29875c0.17854,0.04464 0.34965,0.06695 0.51331,0.06695c0.81089,0 1.55482,-0.53563 1.78544,-1.35396c2.26899,-7.96007 9.58928,-13.52468 17.80229,-13.52468c0.8704,0 1.71104,0.10415 2.54425,0.21574c0.08927,0.01488 0.1711,0.02232 0.26038,0.02232c0.90016,0 1.7036,-0.68442 1.83007,-1.61433c0.14135,-1.01919 -0.57283,-1.95654 -1.59201,-2.09045c-0.99687,-0.13391 -2.00862,-0.25294 -3.04268,-0.25294l0,0z" fill="#472b29"/>
   <path stroke="null" id="svg_14" d="m522.78289,829.62114l-74.39317,0c-2.05325,0 -3.71966,-1.66641 -3.71966,-3.71966s1.66641,-3.71966 3.71966,-3.71966l74.39317,0c2.05325,0 3.71966,1.66641 3.71966,3.71966s-1.65897,3.71966 -3.71966,3.71966zm22.31795,0l-7.43932,0c-2.05325,0 -3.71966,-1.66641 -3.71966,-3.71966s1.66641,-3.71966 3.71966,-3.71966l7.43932,0c2.05325,0 3.71966,1.66641 3.71966,3.71966s-1.65897,3.71966 -3.71966,3.71966zm37.12963,14.87863l-66.8869,0c-2.05325,0 -3.71966,-1.66641 -3.71966,-3.71966s1.66641,-3.71966 3.71966,-3.71966l66.8869,0c2.05325,0 3.71966,1.66641 3.71966,3.71966s-1.66641,3.71966 -3.71966,3.71966zm-81.76553,0l-7.43932,0c-2.05325,0 -3.71966,-1.66641 -3.71966,-3.71966s1.66641,-3.71966 3.71966,-3.71966l7.43932,0c2.05325,0 3.71966,1.66641 3.71966,3.71966s-1.65897,3.71966 -3.71966,3.71966zm-22.31795,0l-14.87863,0c-2.05325,0 -3.71966,-1.66641 -3.71966,-3.71966s1.66641,-3.71966 3.71966,-3.71966l14.87863,0c2.05325,0 3.71966,1.66641 3.71966,3.71966s-1.65897,3.71966 -3.71966,3.71966zm44.6359,14.87863l-14.87863,0c-2.05325,0 -3.71966,-1.66641 -3.71966,-3.71966s1.66641,-3.71966 3.71966,-3.71966l14.87863,0c2.05325,0 3.71966,1.66641 3.71966,3.71966s-1.66641,3.71966 -3.71966,3.71966zm22.31795,-66.95385c-1.31676,0 -6.12256,0 -7.43932,0c-2.05325,0 -3.71966,1.66641 -3.71966,3.71966c0,2.05325 1.66641,3.71966 3.71966,3.71966c1.31676,0 6.12256,0 7.43932,0c2.05325,0 3.71966,-1.66641 3.71966,-3.71966c0,-2.05325 -1.66641,-3.71966 -3.71966,-3.71966zm0,14.87863c-1.31676,0 -35.87982,0 -37.19658,0c-2.05325,0 -3.71966,1.66641 -3.71966,3.71966c0,2.05325 1.66641,3.71966 3.71966,3.71966c1.31676,0 35.87982,0 37.19658,0c2.05325,0 3.71966,-1.66641 3.71966,-3.71966c0,-2.05325 -1.66641,-3.71966 -3.71966,-3.71966zm37.19658,14.87863c-1.31676,0 -21.00119,0 -22.31795,0c-2.05325,0 -3.71966,1.66641 -3.71966,3.71966c0,2.05325 1.66641,3.71966 3.71966,3.71966c1.31676,0 21.00119,0 22.31795,0c2.05325,0 3.71966,-1.66641 3.71966,-3.71966c0,-2.05325 -1.66641,-3.71966 -3.71966,-3.71966z" fill="#fff"/>
   <g stroke="null" transform="matrix(7.439316804927975,0,0,7.439316804927975,-465.2708012776443,-491.8445146970373) " id="svg_15">
    <path stroke="null" id="svg_16" d="m189.81511,150.63266l-10,0c-0.276,0 -0.5,-0.224 -0.5,-0.5s0.224,-0.5 0.5,-0.5l10,0c0.276,0 0.5,0.224 0.5,0.5s-0.224,0.5 -0.5,0.5zm4,0l-2,0c-0.276,0 -0.5,-0.224 -0.5,-0.5s0.224,-0.5 0.5,-0.5l2,0c0.276,0 0.5,0.224 0.5,0.5s-0.224,0.5 -0.5,0.5zm5,2l-10,0c-0.276,0 -0.5,-0.224 -0.5,-0.5s0.224,-0.5 0.5,-0.5l10,0c0.276,0 0.5,0.224 0.5,0.5s-0.223,0.5 -0.5,0.5zm-12,0l-1,0c-0.276,0 -0.5,-0.224 -0.5,-0.5s0.224,-0.5 0.5,-0.5l1,0c0.276,0 0.5,0.224 0.5,0.5s-0.224,0.5 -0.5,0.5zm-3.03,0l-1.97,0c-0.276,0 -0.5,-0.224 -0.5,-0.5s0.224,-0.5 0.5,-0.5l1.97,0c0.276,0 0.5,0.224 0.5,0.5s-0.224,0.5 -0.5,0.5zm9.03,-4l-5,0c-0.276,0 -0.5,-0.224 -0.5,-0.5s0.224,-0.5 0.5,-0.5l5,0c0.276,0 0.5,0.224 0.5,0.5s-0.223,0.5 -0.5,0.5zm-3,6l-2,0c-0.276,0 -0.5,-0.224 -0.5,-0.5s0.224,-0.5 0.5,-0.5l2,0c0.276,0 0.5,0.224 0.5,0.5s-0.224,0.5 -0.5,0.5z" fill="#fff"/>
   </g>
   <g stroke="null" transform="matrix(7.439316804927975,0,0,7.439316804927975,-465.2708012776443,-491.8445146970373) " id="svg_17">
    <path stroke="null" id="svg_18" d="m150.81511,198.13266c0,0 1.567,0 3.5,0s3.5,-1.567 3.5,-3.5c0,-1.781 -1.335,-3.234 -3.055,-3.455c0.028,-0.179 0.055,-0.358 0.055,-0.545c0,-1.933 -1.567,-3.5 -3.5,-3.5c-1.032,0 -1.95,0.455 -2.59,1.165c-0.384,-1.808 -1.987,-3.165 -3.91,-3.165c-2.209,0 -4,1.791 -4,4c0,0.191 0.03,0.374 0.056,0.558c-0.428,-0.344 -0.964,-0.558 -1.556,-0.558c-1.228,0 -2.245,0.887 -2.455,2.055c-0.179,-0.028 -0.358,-0.055 -0.545,-0.055c-1.933,0 -3.5,1.567 -3.5,3.5s1.567,3.5 3.5,3.5s7.5,0 7.5,0l0,0.5l7,0l0,-0.5z" fill="#fdfcef"/>
    <path stroke="null" id="svg_19" d="m152.56511,193.63266c-0.138,0 -0.25,-0.112 -0.25,-0.25c0,-1.223 0.995,-2.218 2.218,-2.218c0.034,0.009 0.737,-0.001 1.244,0.136c0.133,0.036 0.212,0.173 0.176,0.306c-0.036,0.134 -0.173,0.213 -0.306,0.176c-0.444,-0.12 -1.1,-0.12 -1.113,-0.118c-0.948,0 -1.719,0.771 -1.719,1.718c0,0.138 -0.112,0.25 -0.25,0.25zm-6.75,4a0.5,0.5 0 1 0 0,1a0.5,0.5 0 1 0 0,-1z" fill="#472b29"/>
    <path stroke="null" id="svg_20" d="m154.31511,198.63266l-3.5,0c-0.276,0 -0.5,-0.224 -0.5,-0.5s0.224,-0.5 0.5,-0.5l3.5,0c1.654,0 3,-1.346 3,-3c0,-1.496 -1.125,-2.768 -2.618,-2.959c-0.134,-0.018 -0.255,-0.088 -0.336,-0.196s-0.115,-0.244 -0.094,-0.377c0.023,-0.154 0.048,-0.308 0.048,-0.468c0,-1.654 -1.346,-3 -3,-3c-0.85,0 -1.638,0.355 -2.219,1c-0.125,0.139 -0.321,0.198 -0.5,0.148c-0.182,-0.049 -0.321,-0.195 -0.36,-0.379c-0.341,-1.604 -1.78,-2.769 -3.421,-2.769c-1.93,0 -3.5,1.57 -3.5,3.5c0,0.143 0.021,0.28 0.041,0.418c0.029,0.203 -0.063,0.438 -0.242,0.54c-0.179,0.102 -0.396,0.118 -0.556,-0.01c-0.365,-0.293 -0.794,-0.448 -1.243,-0.448c-0.966,0 -1.792,0.691 -1.963,1.644c-0.048,0.267 -0.296,0.446 -0.569,0.405c-0.154,-0.024 -0.308,-0.049 -0.468,-0.049c-1.654,0 -3,1.346 -3,3s1.346,3 3,3l7.5,0c0.276,0 0.5,0.224 0.5,0.5s-0.224,0.5 -0.5,0.5l-7.5,0c-2.206,0 -4,-1.794 -4,-4s1.794,-4 4,-4c0.059,0 0.116,0.002 0.174,0.006c0.414,-1.186 1.537,-2.006 2.826,-2.006c0.349,0 0.689,0.061 1.011,0.18c0.165,-2.333 2.115,-4.18 4.489,-4.18c1.831,0 3.466,1.127 4.153,2.774c0.68,-0.498 1.502,-0.774 2.347,-0.774c2.206,0 4,1.794 4,4c0,0.048 -0.001,0.095 -0.004,0.142c1.743,0.448 3.004,2.027 3.004,3.858c0,2.206 -1.794,4 -4,4z" fill="#472b29"/>
    <path stroke="null" id="svg_21" d="m148.81511,197.63266c-0.159,0 -0.841,0 -1,0c-0.276,0 -0.5,0.224 -0.5,0.5c0,0.276 0.224,0.5 0.5,0.5c0.159,0 0.841,0 1,0c0.276,0 0.5,-0.224 0.5,-0.5c0,-0.276 -0.224,-0.5 -0.5,-0.5z" fill="#472b29"/>
   </g>
   <g stroke="null" transform="matrix(7.439316804927975,0,0,7.439316804927975,-465.2708012776443,-491.8445146970373) " id="svg_22">
    <path stroke="null" id="svg_23" d="m165.06511,200.88266l0,-37.312l-10.523,9.593l-4.251,-4.015l17.607,-16.766l17.456,16.766l-4.251,4.015l-10.621,-9.607l0,37.326l-5.417,0z" fill="#60be92"/>
    <path stroke="null" id="svg_24" d="m170.48211,201.58266l-5.417,0c-0.387,0 -0.7,-0.313 -0.7,-0.7l0,-35.728l-9.352,8.526c-0.271,0.246 -0.686,0.242 -0.952,-0.009l-4.25,-4.015c-0.14,-0.132 -0.219,-0.315 -0.22,-0.508c0,-0.191 0.078,-0.375 0.217,-0.508l17.607,-16.767c0.272,-0.258 0.699,-0.256 0.968,0.002l17.455,16.767c0.138,0.133 0.216,0.316 0.215,0.508c-0.001,0.191 -0.08,0.374 -0.22,0.506l-4.25,4.015c-0.265,0.249 -0.679,0.254 -0.95,0.011l-9.452,-8.55l0,35.75c0.001,0.387 -0.313,0.7 -0.699,0.7zm-4.717,-1.4l4.016,0l0,-36.626c0,-0.276 0.163,-0.527 0.416,-0.64c0.253,-0.113 0.549,-0.064 0.754,0.12l10.142,9.174l3.246,-3.065l-16.442,-15.794l-16.589,15.796l3.242,3.062l10.043,-9.156c0.205,-0.187 0.501,-0.235 0.754,-0.123s0.417,0.363 0.417,0.641l0,36.611l0.001,0z" fill="#472b29"/>
   </g>
   <g stroke="null" transform="matrix(7.439316804927975,0,0,7.439316804927975,-465.2708012776443,-491.8445146970373) " id="svg_25">
    <path stroke="null" id="svg_26" d="m161.31511,201.53366l0,-22c0,-0.276 0.224,-0.5 0.5,-0.5s0.5,0.224 0.5,0.5l0,22c0,0.276 -0.224,0.5 -0.5,0.5s-0.5,-0.224 -0.5,-0.5z" fill="#472b29"/>
   </g>
   <g stroke="null" transform="matrix(7.439316804927975,0,0,7.439316804927975,-465.2708012776443,-491.8445146970373) " id="svg_27">
    <path stroke="null" id="svg_28" d="m161.31511,177.53366l0,-1c0,-0.276 0.224,-0.5 0.5,-0.5s0.5,0.224 0.5,0.5l0,1c0,0.276 -0.224,0.5 -0.5,0.5s-0.5,-0.224 -0.5,-0.5z" fill="#472b29"/>
   </g>
   <g stroke="null" transform="matrix(7.439316804927975,0,0,7.439316804927975,-465.2708012776443,-491.8445146970373) " id="svg_29">
    <path stroke="null" id="svg_30" d="m161.31511,174.53366l0,-4c0,-0.276 0.224,-0.5 0.5,-0.5s0.5,0.224 0.5,0.5l0,4c0,0.276 -0.224,0.5 -0.5,0.5s-0.5,-0.224 -0.5,-0.5z" fill="#472b29"/>
   </g>
  </g>
 </g>
</svg>